# xmcd
#
# Track frame offsets:
# 150
# 26426
# 45496
# 72472
# 91492
# 145148
#
# Disc length: 2845 seconds
#
#
# Revision: 1
# Processed by: cddbd v1.5.1PL2 Copyright (c) Steve Scherf et al.
# Submitted via: freedbtool 1.11
#
DISCID=4c0b1b06
DTITLE=Stevie Ray Vaughan - Last Live Show [CD2]
DYEAR=1990
DGENRE=Blues
TTITLE0=Superstition
TTITLE1=Couldn't Stand The Weather
TTITLE2=Going Down
TTITLE3=Crossfire
TTITLE4=Voodoo Chile
TTITLE5=Sweet Home Chicago
EXTD=
EXTT0=
EXTT1=
EXTT2=
EXTT3=
EXTT4=
EXTT5=w/Jimmy Vaughn, Eric Clapton, Robert Cray
PLAYORDER=
